HIERARCHY
ROOT Hips
{
	OFFSET 0.000000 0.000000 0.000000 
	CHANNELS 6 Xposition Yposition Zposition Yrotation Zrotation Xrotation 
	JOINT Lumbar
	{
		OFFSET 0.000000 0.000000 0.000000 
		CHANNELS 3 Zrotation Xrotation Yrotation
		JOINT Neck
		{
			OFFSET 0.000000 0.445665 0.000000 
			CHANNELS 3 Zrotation Xrotation Yrotation
			End Site
			{
				OFFSET 0.000000 0.227535 0.000000 
			}
		}
		JOINT RightShoulder
		{
			OFFSET 0.019635 0.377685 0.194865 
			CHANNELS 3 Zrotation Xrotation Yrotation
			JOINT RightElbow
			{
				OFFSET 0.000000 -0.243375 0.000000 
				CHANNELS 2 Zrotation Yrotation
				JOINT RightWrist
				{
					OFFSET 0.000000 -0.264825 0.000000 
					CHANNELS 2 Zrotation Xrotation
					End Site
					{
						OFFSET 0.006600 -0.176220 0.000990 
					}
				}
			}
		}
		JOINT LeftShoulder
		{
			OFFSET 0.019635 0.377685 -0.194865 
			CHANNELS 3 Zrotation Xrotation Yrotation
			JOINT LeftElbow
			{
				OFFSET 0.000000 -0.243375 0.000000 
				CHANNELS 2 Zrotation Yrotation
				JOINT LeftWrist
				{
					OFFSET 0.000000 -0.264825 0.000000 
					CHANNELS 2 Zrotation Xrotation
					End Site
					{
						OFFSET 0.006600 -0.176220 -0.000990 
					}
				}
			}
		}
	}
	JOINT RightHip
	{
		OFFSET 0.052140 -0.069960 0.075570 
		CHANNELS 3 Zrotation Xrotation Yrotation
		JOINT RightKnee
		{
			OFFSET 0.000000 -0.402270 0.000000 
			CHANNELS 1 Zrotation
			JOINT RightAnkle
			{
				OFFSET 0.000000 -0.404085 0.000000 
				CHANNELS 3 Zrotation Xrotation Yrotation
				End Site
				{
					OFFSET 0.204105 -0.089430 0.008415 
				}
			}
		}
	}
	JOINT LeftHip
	{
		OFFSET 0.052140 -0.069960 -0.075570 
		CHANNELS 3 Zrotation Xrotation Yrotation
		JOINT LeftKnee
		{
			OFFSET 0.000000 -0.402270 0.000000 
			CHANNELS 1 Zrotation
			JOINT LeftAnkle
			{
				OFFSET 0.000000 -0.404085 0.000000 
				CHANNELS 3 Zrotation Xrotation Yrotation
				End Site
				{
					OFFSET 0.204105 -0.089430 -0.008415 
				}
			}
		}
	}
}
MOTION
Frames: 22
Frame Time: 0.02
-0.0009 -0.00021 0.00142 23.26239 -31.3783 -6.92001 50.00542 1.74002 -3.60924 8.5066 0.18259 -0.31591 -8.31064 -10.94025 -30.29814 27.86654 141.45502 16.29884 10.83553 -13.33317 17.83439 -4.78274 54.22347 -98.71587 10.3403 -1.89036 44.07802 0.58678 -12.05142 -19.2821 -6.14126 -2.06018 -3.20278 46.89615 2.85365 6.82445 -24.93411 -6.24607 2.1114 3.2678
-0.00045 -0.00015 0.00135 23.39535 -31.33356 -6.91823 49.90192 1.73229 -3.6499 8.60287 0.11808 -0.3181 -8.87805 -10.92202 -25.99413 28.46553 136.88458 15.6737 9.87081 -13.74587 17.26494 -5.69783 53.63657 -98.98619 10.62631 -1.88083 43.99751 0.59649 -12.0586 -19.3068 -6.13897 -2.07541 -3.21109 46.82574 2.9078 7.01499 -24.95464 -6.24822 2.08066 3.25043
-0 -9e-05 0.00129 23.52807 -31.28896 -6.91644 49.79861 1.72458 -3.69053 8.69872 0.05373 -0.32042 -9.44444 -10.90408 -21.70274 29.06366 132.33508 15.05243 8.9102 -14.15782 16.69736 -6.61078 53.05139 -99.25603 10.91194 -1.87132 43.91726 0.60614 -12.06584 -19.33142 -6.13669 -2.09061 -3.21938 46.75559 2.96182 7.20514 -24.97511 -6.25038 2.04997 3.2331
0.00044 -3e-05 0.00123 23.66065 -31.24436 -6.91466 49.69541 1.71688 -3.73109 8.79468 -0.01058 -0.32262 -10.01024 -10.88592 -17.41185 29.661 127.78033 14.42967 7.94872 -14.56934 16.12965 -7.52323 52.46627 -99.52559 11.19718 -1.86182 43.83699 0.61582 -12.07299 -19.35605 -6.13441 -2.1058 -3.22766 46.68539 3.01582 7.39511 -24.99558 -6.25253 2.01932 3.21578
0.00089 3e-05 0.00117 23.79339 -31.19964 -6.91291 49.59206 1.70918 -3.77162 8.89111 -0.07504 -0.32465 -10.57675 -10.86744 -13.10869 30.25875 123.20068 13.80193 6.98246 -14.98143 15.56012 -8.43739 51.87951 -99.79546 11.48254 -1.85233 43.75647 0.62558 -12.08008 -19.38074 -6.13211 -2.12102 -3.23597 46.61495 3.06994 7.5854 -25.0161 -6.25466 1.98864 3.19844
0.00133 0.0001 0.00111 23.92605 -31.1553 -6.91103 49.48882 1.70145 -3.81245 8.98574 -0.13914 -0.32758 -11.14283 -10.85068 -8.84236 30.85761 118.71396 13.19405 6.03365 -15.39306 14.9967 -9.34764 51.29769 -100.06522 11.76868 -1.84277 43.67681 0.63499 -12.08766 -19.40521 -6.12989 -2.13616 -3.24422 46.54542 3.12375 7.77525 -25.03646 -6.25691 1.95793 3.18112
0.00178 0.00016 0.00104 24.05874 -31.11023 -6.90942 49.3855 1.69377 -3.85267 9.08388 -0.20392 -0.32869 -11.70925 -10.83029 -4.50659 31.45377 114.04926 12.54795 5.05148 -15.80511 14.42145 -10.26516 50.70652 -100.33498 12.05312 -1.83335 43.59547 0.6451 -12.09416 -19.43012 -6.12751 -2.15146 -3.25257 46.47408 3.17812 7.96574 -25.05714 -6.2589 1.92732 3.16377
0.00222 0.00022 0.00098 24.1914 -31.06586 -6.90756 49.28223 1.68606 -3.89339 9.17879 -0.26803 -0.33147 -12.27517 -10.81358 -0.2349 32.05206 109.54126 11.93514 4.09879 -16.21687 13.85739 -11.17524 50.12404 -100.60459 12.33877 -1.82383 43.51575 0.65455 -12.10181 -19.45462 -6.12528 -2.1666 -3.26083 46.40448 3.232 8.15571 -25.07752 -6.26113 1.89661 3.14645
0.00264 0.00028 0.00093 24.32412 -31.02221 -6.90536 49.17904 1.67826 -3.935 9.26976 -0.3315 -0.33636 -12.84158 -10.80012 3.96058 32.6548 105.25365 11.37091 3.18701 -16.62816 13.30566 -12.07964 49.55165 -100.87481 12.62754 -1.81404 43.4377 0.66323 -12.11025 -19.47865 -6.12324 -2.1816 -3.26899 46.33671 3.28517 8.34489 -25.09755 -6.26365 1.86579 3.12916
0.00317 0.00034 0.00083 24.45677 -30.97401 -6.90501 49.07543 1.67084 -3.97235 9.38342 -0.39919 -0.3293 -13.40849 -10.76421 8.60105 33.23754 99.78468 10.55089 2.0545 -17.04183 12.67891 -13.02706 48.91959 -101.14391 12.90333 -1.80536 43.3491 0.67648 -12.11229 -19.50545 -6.1201 -2.19756 -3.27776 46.25753 3.34211 8.53815 -25.11961 -6.26452 1.8356 3.11167
0.00347 0.00041 0.00083 24.58935 -30.93567 -6.90082 48.97269 1.66268 -4.01812 9.4492 -0.45764 -0.34733 -13.97214 -10.77801 12.2981 33.85874 96.75237 10.2552 1.37827 -17.45058 12.21311 -13.87694 48.41454 -101.41377 13.20324 -1.79464 43.28335 0.67998 -12.12901 -19.52636 -6.11929 -2.21139 -3.28519 46.203 3.39128 8.72306 -25.13738 -6.26888 1.80411 3.09462
0.00315 0.00054 0.00107 24.72377 -30.9229 -6.88538 48.87235 1.65182 -4.09186 9.38284 -0.4931 -0.43593 -14.54502 -10.91032 13.41907 34.61754 100.94228 11.54129 2.04575 -17.8447 12.17087 -14.51099 48.25123 -101.70583 13.59952 -1.77679 43.27654 0.65746 -12.17633 -19.53133 -6.12488 -2.22014 -3.28933 46.21267 3.41737 8.8826 -25.14346 -6.28283 1.76883 3.07882
0.00259 0.00069 0.00141 24.85776 -30.92052 -6.86621 48.77278 1.64028 -4.17316 9.26886 -0.51878 -0.54935 -15.11106 -11.09568 13.58992 35.40894 107.48685 13.32898 3.15572 -18.23376 12.29336 -15.03638 48.21615 -101.99955 14.01603 -1.75787 43.29371 0.62505 -12.23984 -19.53036 -6.13281 -2.22662 -3.29203 46.24812 3.43592 9.03397 -25.14523 -6.3003 1.73229 3.06347
0.00212 0.00082 0.00172 24.99058 -30.91412 -6.84922 48.67294 1.62958 -4.2478 9.17679 -0.54744 -0.65039 -15.66864 -11.26868 14.18784 36.16461 112.59484 14.79174 4.00167 -18.62633 12.35262 -15.57912 48.12755 -102.27349 14.40158 -1.73954 43.30189 0.59662 -12.30271 -19.53195 -6.13966 -2.23362 -3.2951 46.27358 3.45912 9.19102 -25.1489 -6.31614 1.69645 3.04789
0.00172 0.00098 0.00196 25.12905 -30.90396 -6.83018 48.57311 1.61691 -4.33604 9.0822 -0.5825 -0.7564 -16.27591 -11.39293 14.80566 37.00901 119.22518 16.65838 5.10873 -19.01521 12.36409 -16.2615 48.02149 -102.60877 14.87258 -1.71792 43.30064 0.57016 -12.33867 -19.53408 -6.14657 -2.24275 -3.29936 46.29029 3.47736 9.34077 -25.15275 -6.33207 1.65999 3.0324
0.00112 0.00108 0.00237 25.25578 -30.9051 -6.8145 48.47301 1.60786 -4.39778 8.98318 -0.60162 -0.85761 -16.777 -11.63036 15.15446 37.6759 123.27997 17.8109 5.78363 -19.4088 12.51288 -16.62143 47.97925 -102.84046 15.17855 -1.70646 43.3265 0.53749 -12.43276 -19.5337 -6.15396 -2.24694 -3.30084 46.33321 3.50384 9.50249 -25.15526 -6.34871 1.6246 3.01687
0.00011 0.00105 0.0032 25.34915 -30.92671 -6.8093 48.37568 1.61159 -4.38419 8.87058 -0.58153 -0.94228 -16.99543 -12.17504 15.0162 37.84822 119.31552 16.79548 5.09616 -19.83148 13.01243 -16.17134 48.10698 -102.56307 14.94724 -1.68951 43.40636 0.48803 -12.69829 -19.52759 -6.16167 -2.2378 -3.2947 46.42662 3.55764 9.71035 -25.1546 -6.36598 1.59195 3.00067
-0.0011 0.00096 0.00421 25.43092 -30.96106 -6.80759 48.27732 1.6185 -4.34382 8.7579 -0.54526 -1.02073 -17.10542 -12.83009 14.63599 37.84025 112.73749 15.05736 3.96941 -20.25611 13.64312 -15.3931 48.29012 -102.20963 14.55885 -1.68691 43.51578 0.43306 -13.01897 -19.51921 -6.1699 -2.22385 -3.2859 46.54874 3.61946 9.9283 -25.15283 -6.38394 1.56053 2.98451
-0.00226 0.0009 0.00517 25.51867 -30.99466 -6.80403 48.17704 1.62223 -4.31578 8.6534 -0.51487 -1.10017 -17.2595 -13.42984 14.35148 37.9123 107.57409 13.69832 3.08381 -20.67039 14.2048 -14.7265 48.43094 -102.05389 14.29851 -1.70273 43.62106 0.38196 -13.30464 -19.51199 -6.17813 -2.21225 -3.2785 46.66749 3.67584 10.13456 -25.15191 -6.40187 1.52887 2.9686
-0.00324 0.00086 0.00598 25.6034 -31.00646 -6.80127 48.08701 1.63323 -4.28691 8.51163 -0.49048 -1.18821 -17.43602 -14.05416 14.09374 37.99295 101.54068 12.14398 2.03953 -21.12529 14.80828 -14.20355 48.64719 -101.26411 13.81861 -1.62233 43.68659 0.32468 -13.63289 -19.50397 -6.18531 -2.19975 -3.27018 46.74493 3.73961 10.3712 -25.14941 -6.41866 1.49573 2.95153
-0.00465 0.00074 0.00714 25.69169 -31.06765 -6.79793 47.97517 1.62988 -4.25385 8.44964 -0.44971 -1.25659 -17.53918 -14.65156 13.73545 38.01324 96.66107 10.81702 1.21426 -21.49504 15.35831 -13.31844 48.71959 -101.70833 13.73468 -1.7343 43.84331 0.27919 -13.88531 -19.49721 -6.19493 -2.18816 -3.26323 46.91661 3.78988 10.54626 -25.14997 -6.43802 1.46607 2.93692
-0.00711 0.00043 0.00913 25.79256 -31.25284 -6.79036 47.80471 1.58602 -4.2109 8.59511 -0.36899 -1.27162 -17.47403 -15.15775 13.16207 37.90378 95.65501 10.30276 1.11114 -21.63787 15.68679 -11.39632 48.366 -106.18477 14.99307 -2.47577 44.23023 0.26665 -13.91608 -19.49404 -6.20984 -2.17895 -3.26 47.3268 3.80178 10.55544 -25.15951 -6.46378 1.44512 2.92882
